<svg width="463" height="300" viewBox="0 0 463 300" fill="none" xmlns="http://www.w3.org/2000/svg">
<path d="M91 150C91 232.843 158.157 300 241 300C273.214 300 303.056 289.845 327.5 272.562L91 150Z" fill="#79C9EA"/>
<path d="M219.556 227.572C339.435 283.917 442.012 311.628 459.601 274.207C477.19 236.785 383.927 178.614 264.048 122.269L219.556 227.572Z" fill="#E470D4"/>
<path d="M25.4814 70.1632C7.8925 107.585 99.6772 171.227 219.556 227.572L264.048 122.269C144.169 65.9244 43.0702 32.7414 25.4814 70.1632Z" fill="#F5C168"/>
<circle cx="241" cy="150" r="150" fill="#7C5AEF"/>
<path fill-rule="evenodd" clip-rule="evenodd" d="M219.422 227.572C256.279 244.895 291.501 259.512 323.12 270.362L327.366 272.562C302.922 289.845 273.08 300 240.866 300C160.165 300 94.3486 236.27 91 156.392C125.2 179.789 169.915 204.303 219.422 227.572Z" fill="#79C9EA"/>
</svg>
